<svg width="800" height="560" viewBox="0 0 800 560" xmlns="http://www.w3.org/2000/svg">
  <defs>
    <linearGradient id="bg" x1="0" y1="0" x2="0" y2="1">
      <stop offset="0" stop-color="#E6FFF3"/>
      <stop offset="1" stop-color="#D8FBEA"/>
    </linearGradient>
  </defs>
  <rect width="800" height="560" rx="20" fill="url(#bg)"/>
  <g transform="translate(120,180)">
    <rect x="0" y="0" width="280" height="180" rx="12" fill="#2ecc71" opacity="0.15"/>
    <rect x="20" y="30" width="24" height="80" rx="4" fill="#2ecc71"/>
    <rect x="60" y="50" width="24" height="60" rx="4" fill="#2ecc71"/>
    <rect x="100" y="20" width="24" height="90" rx="4" fill="#2ecc71"/>
    <rect x="140" y="65" width="24" height="45" rx="4" fill="#2ecc71"/>
  </g>
  <g transform="translate(340,220)">
    <rect x="0" y="0" width="48" height="48" rx="8" fill="#2ecc71" opacity="0.15"/>
    <circle cx="24" cy="24" r="16" fill="#2ecc71"/>
    <path d="M16 24h16M24 16v16" stroke="#fff" stroke-width="2" stroke-linecap="round"/>
  </g>
  <g transform="translate(400,320)">
    <rect x="0" y="0" width="52" height="52" rx="8" fill="#2ecc71" opacity="0.15"/>
    <path d="M16 26h20" stroke="#2ecc71" stroke-width="3" stroke-linecap="round"/>
    <path d="M18 18h16" stroke="#2ecc71" stroke-width="3" stroke-linecap="round"/>
    <path d="M18 34h16" stroke="#2ecc71" stroke-width="3" stroke-linecap="round"/>
  </g>
  <g transform="translate(450,220)">
    <rect x="0" y="0" width="260" height="180" rx="18" fill="#1f2937"/>
    <rect x="10" y="10" width="240" height="140" rx="8" fill="#0f172a"/>
    <rect x="60" y="162" width="140" height="10" rx="5" fill="#334155"/>
    <rect x="24" y="28" width="48" height="8" rx="4" fill="#22c55e"/>
    <rect x="24" y="44" width="120" height="8" rx="4" fill="#16a34a" opacity="0.6"/>
    <rect x="24" y="60" width="90" height="8" rx="4" fill="#16a34a" opacity="0.4"/>
    <rect x="24" y="76" width="150" height="8" rx="4" fill="#16a34a" opacity="0.7"/>
  </g>
</svg>
